<?xml version="1.0" encoding="UTF-8"?>
<svg version="1.1" xmlns="http://www.w3.org/2000/svg" width="96" height="96">
<path d="M0 0 C1.30485352 -0.00945648 2.60970703 -0.01891296 3.95410156 -0.02865601 C5.37044581 -0.02328599 6.78678728 -0.01713297 8.203125 -0.01025391 C9.66373846 -0.01227633 11.12435093 -0.01518917 12.58496094 -0.01895142 C15.64137415 -0.02336689 18.69752376 -0.01696902 21.75390625 -0.00292969 C25.66466251 0.01416207 29.57480105 0.00431667 33.48553467 -0.01364708 C36.5002098 -0.02450611 39.51473934 -0.02102893 42.52941895 -0.0132637 C43.97107009 -0.01126754 45.4127346 -0.01370043 46.85437012 -0.02070236 C48.87166072 -0.02835084 50.88899788 -0.01461935 52.90625 0 C54.05254883 0.00238678 55.19884766 0.00477356 56.37988281 0.00723267 C60.95339483 0.57415305 63.40596618 2.05404211 66.24136353 5.66650391 C67.70229195 8.94782561 67.83383617 11.34627564 67.84130859 14.93505859 C67.85076508 16.23991211 67.86022156 17.54476563 67.8699646 18.88916016 C67.86459459 20.3055044 67.85844156 21.72184587 67.8515625 23.13818359 C67.85358492 24.59879705 67.85649776 26.05940952 67.86026001 27.52001953 C67.86467549 30.57643274 67.85827762 33.63258235 67.84423828 36.68896484 C67.82714653 40.5997211 67.83699192 44.50985964 67.85495567 48.42059326 C67.8658147 51.43526839 67.86233753 54.44979794 67.8545723 57.46447754 C67.85257613 58.90612868 67.85500903 60.34779319 67.86201096 61.78942871 C67.86965943 63.80671931 67.85592794 65.82405647 67.84130859 67.84130859 C67.83892181 68.98760742 67.83653503 70.13390625 67.83407593 71.31494141 C67.26715554 75.88845343 65.78726649 78.34102478 62.17480469 81.17642212 C58.89348299 82.63735055 56.49503295 82.76889476 52.90625 82.77636719 C51.60139648 82.78582367 50.29654297 82.79528015 48.95214844 82.80502319 C47.53580419 82.79965318 46.11946272 82.79350015 44.703125 82.78662109 C43.24251154 82.78864351 41.78189907 82.79155636 40.32128906 82.7953186 C37.26487585 82.79973408 34.20872624 82.79333621 31.15234375 82.77929688 C27.24158749 82.76220512 23.33144895 82.77205051 19.42071533 82.79001427 C16.4060402 82.80087329 13.39151066 82.79739612 10.37683105 82.78963089 C8.93517991 82.78763472 7.4935154 82.79006762 6.05187988 82.79706955 C4.03458928 82.80471803 2.01725212 82.79098654 0 82.77636719 C-1.14629883 82.77398041 -2.29259766 82.77159363 -3.47363281 82.76913452 C-8.04714483 82.20221414 -10.49971618 80.72232508 -13.33511353 77.10986328 C-14.79604195 73.82854158 -14.92758617 71.43009154 -14.93505859 67.84130859 C-14.94451508 66.53645508 -14.95397156 65.23160156 -14.9637146 63.88720703 C-14.95834459 62.47086278 -14.95219156 61.05452132 -14.9453125 59.63818359 C-14.94733492 58.17757014 -14.95024776 56.71695767 -14.95401001 55.25634766 C-14.95842549 52.19993445 -14.95202762 49.14378484 -14.93798828 46.08740234 C-14.92089653 42.17664608 -14.93074192 38.26650754 -14.94870567 34.35577393 C-14.9595647 31.34109879 -14.95608753 28.32656925 -14.9483223 25.31188965 C-14.94632613 23.87023851 -14.94875903 22.428574 -14.95576096 20.98693848 C-14.96340943 18.96964788 -14.94967794 16.95231072 -14.93505859 14.93505859 C-14.93267181 13.78875977 -14.93028503 12.64246094 -14.92782593 11.46142578 C-14.36090554 6.88791376 -12.88101649 4.43534241 -9.26855469 1.59994507 C-5.98723299 0.13901664 -3.58878295 0.00747243 0 0 Z M18.453125 26.38818359 C18.453125 27.04818359 18.453125 27.70818359 18.453125 28.38818359 C24.393125 28.71818359 30.333125 29.04818359 36.453125 29.38818359 C35.1125 30.70818359 33.771875 32.02818359 32.390625 33.38818359 C28.83621997 36.93703487 25.48611072 40.58179305 22.2265625 44.39990234 C19.61686814 47.3257491 16.79474021 50.02102831 13.95703125 52.72412109 C12.22962407 54.26166043 12.22962407 54.26166043 12.453125 56.38818359 C20.373125 56.38818359 28.293125 56.38818359 36.453125 56.38818359 C36.453125 55.72818359 36.453125 55.06818359 36.453125 54.38818359 C30.183125 54.05818359 23.913125 53.72818359 17.453125 53.38818359 C23.91435772 46.23775271 30.44883876 39.269212 37.38745117 32.57885742 C38.77878637 31.2179293 40.12100986 29.80712977 41.453125 28.38818359 C41.453125 27.72818359 41.453125 27.06818359 41.453125 26.38818359 C33.863125 26.38818359 26.273125 26.38818359 18.453125 26.38818359 Z " fill="#000000" transform="translate(21.546875,6.61181640625)"/>
</svg>
